inDegrees=no
num_controls=7
num_derivatives=13
num_iterations=42
num_multipliers=7
num_parameters=0
num_slacks=7
num_states=26
objective=0.471851
objective_accelerations=0.057255
objective_balance=0.000571
objective_effort=0.015521
objective_height=0.389519
objective_ligament=0.008985
solver_duration=577.888770
status=Solve_Succeeded
success=true
DataType=double
version=3
OpenSimVersion=4.5
endheader
time	/jointset/ground_pelvis/pelvis_tilt/value	/jointset/ground_pelvis/pelvis_tx/value	/jointset/ground_pelvis/pelvis_ty/value	/jointset/hip_l/hip_flexion_l/value	/jointset/hip_l/hip_adduction_l/value	/jointset/hip_l/hip_rotation_l/value	/jointset/back/lumbar_extension/value	/jointset/patellofemoral_l/patellar_flexion_l/value	/jointset/knee_l/knee_flexion_l/value	/jointset/knee_l/knee_adduction_l/value	/jointset/knee_l/knee_rotation_l/value	/jointset/ankle_l/ankle_angle_l/value	/jointset/subtalar_l/subtalar_angle_l/value	/jointset/ground_pelvis/pelvis_tilt/speed	/jointset/ground_pelvis/pelvis_tx/speed	/jointset/ground_pelvis/pelvis_ty/speed	/jointset/hip_l/hip_flexion_l/speed	/jointset/hip_l/hip_adduction_l/speed	/jointset/hip_l/hip_rotation_l/speed	/jointset/back/lumbar_extension/speed	/jointset/patellofemoral_l/patellar_flexion_l/speed	/jointset/knee_l/knee_flexion_l/speed	/jointset/knee_l/knee_adduction_l/speed	/jointset/knee_l/knee_rotation_l/speed	/jointset/ankle_l/ankle_angle_l/speed	/jointset/subtalar_l/subtalar_angle_l/speed	/forceset/tau_hip_flexion_l	/forceset/tau_hip_adduction_l	/forceset/tau_hip_rotation_l	/forceset/tau_knee_flexion_l	/forceset/tau_ankle_angle_l	/forceset/tau_subtalar_angle_l	/forceset/tau_lumbar_extension	lambda_cid13_p0	lambda_cid13_p1	lambda_cid13_p2	lambda_cid13_p3	lambda_cid13_p4	lambda_cid13_p5	lambda_cid14_p0	/jointset/ground_pelvis/pelvis_tilt/accel	/jointset/ground_pelvis/pelvis_tx/accel	/jointset/ground_pelvis/pelvis_ty/accel	/jointset/hip_l/hip_flexion_l/accel	/jointset/hip_l/hip_adduction_l/accel	/jointset/hip_l/hip_rotation_l/accel	/jointset/back/lumbar_extension/accel	/jointset/patellofemoral_l/patellar_flexion_l/accel	/jointset/knee_l/knee_flexion_l/accel	/jointset/knee_l/knee_adduction_l/accel	/jointset/knee_l/knee_rotation_l/accel	/jointset/ankle_l/ankle_angle_l/accel	/jointset/subtalar_l/subtalar_angle_l/accel	gamma_cid13_p0	gamma_cid13_p1	gamma_cid13_p2	gamma_cid13_p3	gamma_cid13_p4	gamma_cid13_p5	gamma_cid14_p0
0	0.05626862368874411	0.1038652526684856	0.9051675904602727	0.1266922784136757	-0.3500445414887903	-0.2319625154188001	-0.2144969558742783	0.2051545070142049	0.2051545070141877	-0.1336383074604567	-0.1573783614966806	0.09024313228550125	0.1008514090381844	0	0	0	0	0	0	0	0	0	0	0	0	0	0.1150032706869393	-0.0238989069990527	-0.007790552999659301	-0.2482654299820891	0.1958696569837944	-0.09508142382543135	-0.04685368135143154	30.86019273907095	38.48470004726114	-9.379763046607771	-19.88367358267669	-441.810537900929	-31.80718314103104	-25.84800747237157	-3.167479235853008	-0.9465794636004563	-0.7825521457674085	10.3334613030779	-0.1154850131362091	2.592909046284284	-3.316754686585083	9.433431854755659	9.433431854755478	2.176230521298036	-0.777970135533132	3.11609727641368	0.8352350831006649	5.87283965744952e-09	4.058722003500533e-07	-2.523304547353656e-07	4.83078371760681e-08	-5.261303624543115e-08	3.017214252937665e-07	7.370182120523369e-08
0.01	0.05611909202652222	0.103819513466299	0.9051294112929427	0.1271931340986967	-0.3500508720775179	-0.2318272596165349	-0.2146678629462143	0.2056189231744742	0.2056189231744632	-0.1335329168506862	-0.157409464786761	0.09039861170770583	0.1008923902604512	-0.029610647596184	-0.009012840905679253	-0.007635634764430243	0.09961419995359676	-0.001437687904275022	0.02710116674170839	-0.03407510153835177	0.09284466955465252	0.09284466955465191	0.02071159816292976	-0.006215319030726541	0.03124763402187082	0.008058118214430331	0.1137294674551526	-0.03360613738693339	-0.007611833994075278	-0.2484522315847624	0.1951649441196534	-0.08643205167757803	-0.04561845870183025	31.25378297073878	34.61653448476145	-8.714150728260453	-21.2791844579036	-441.4109779318622	-39.78110467310306	-25.84828588648243	-2.813500782437774	-0.8583768134773651	-0.7540498591168607	9.691861302138701	-0.1836652306309649	2.776272683560862	-3.43694095937749	9.20418539054039	9.204185390540479	1.963686129205275	-0.5425630514711083	3.151868967760144	0.7703477327400062	-9.749148699291093e-09	5.488845204852568e-07	-1.78191059596731e-07	6.490302354166538e-08	-1.362498776159335e-07	2.781921218184988e-07	8.022026152038501e-08
0.02	0.05568232523613122	0.1036876977731698	0.9050148796345003	0.1286734241753574	-0.3500767304556028	-0.2314194817077756	-0.2151763316479289	0.2070106262072531	0.2070106262072534	-0.1332313979262973	-0.1575025713200394	0.09087112197064975	0.1010098021732872	-0.05744702562979002	-0.01721529818852752	-0.01527049822248417	0.1958868783326949	-0.00390555787089477	0.05450442130128517	-0.06751232595335709	0.1854573744981262	0.1854573744981275	0.03922566294246256	-0.01240064864661212	0.06340616815119701	0.01528613811389357	0.112455664223299	-0.04331336777466851	-0.00743311498878852	-0.2486390331873428	0.1944602312555916	-0.07778267952953834	-0.04438323605238834	31.6909331127212	30.75418013397206	-8.064815657609728	-22.72154857656177	-440.2230572060495	-47.56947504897406	-25.84908582994755	-2.812625323337051	-0.7845027390345236	-0.7823978844921339	9.665156988178165	-0.321521425605175	2.653326609857962	-3.189179261915581	9.387038932519978	9.387038932520296	1.736723844618624	-0.7719722525650026	3.29827729790448	0.6692154201071376	-2.537113705603171e-08	6.918968406204604e-07	-1.040516644580964e-07	8.149820990726268e-08	-2.198867189864359e-07	2.546628183432311e-07	8.673870183553632e-08
0.03	0.05497329823350224	0.1034765011364202	0.9048240844621624	0.1311017538731807	-0.3501302032870553	-0.2307395605161628	-0.2160135878159937	0.2093218646275947	0.2093218646276215	-0.1327527486297144	-0.1576578261617948	0.09166526383135359	0.1011963897849074	-0.08430927494679145	-0.02502914484521687	-0.02287511804071002	0.289383438401066	-0.0067335846067542	0.08132874553908569	-0.09962482867925986	0.2761806087830223	0.2761806087830242	0.05643136723814871	-0.01854590727261818	0.09512195363852666	0.02200134983074405	0.1084758181845326	-0.03811828075897813	-0.006720278506093235	-0.2431061965474988	0.1866481132826581	-0.07917443938975846	-0.04141261051758117	29.05083211400144	31.58457681425138	-7.927283665722443	-20.62998689993572	-440.630665059597	-45.06581053578095	-25.85027627201024	-2.615657543408096	-0.7805766155322457	-0.7475256150636403	9.132560020004203	-0.2552127245224917	2.674362527051327	-3.175173930228416	8.82349318411619	8.823493184116192	1.701673928524754	-0.5201736374685439	3.063209959570227	0.6680725311488045	-3.386074701180521e-08	7.696088771960195e-07	-1.327099036591822e-07	1.011002949597469e-07	-3.471040315846628e-07	2.800017327236458e-07	1.031525508121255e-07
